<svg width="432" height="512" viewBox="0 0 432 512" fill="none" xmlns="http://www.w3.org/2000/svg">
<path d="M72.1499 512C70.4126 511.345 67.8666 511.033 66.0021 510.698C62.5284 510.075 59.3079 509.427 55.9359 508.33C35.0429 501.642 17.7751 486.733 8.11363 467.038C3.84113 458.325 1.21838 448.898 0.377877 439.23C-0.0858728 433.653 0.0561286 427.315 0.0558786 421.665L0.0608759 395.883L0.0606279 313.035L0.0611276 209.498L0.0578775 176.439C0.0533775 170.297 -0.135124 162.85 0.193376 156.829C0.546126 149.458 1.93013 142.173 4.30538 135.187C11.1951 114.985 25.8586 98.365 45.0449 89.0123C53.6001 84.8693 62.8239 82.281 72.2854 81.3683C81.5399 80.5245 96.3261 80.981 106.066 80.9845L166.25 80.9915L238.502 80.9945L261.067 80.9883C266.117 80.985 271.544 80.8715 276.539 81.1965C283.642 81.681 290.644 83.113 297.364 85.4545C317.489 92.516 333.982 107.288 343.209 126.516C347.422 135.29 349.982 144.766 350.759 154.467C351.237 160.081 351.077 166.5 351.074 172.203L351.067 198.876L351.064 283.86L351.062 384.65L351.067 416.85C351.079 432.035 351.739 443.59 346.579 458.293C339.454 478.54 324.549 495.112 305.167 504.332C300.284 506.67 295.542 508.4 290.282 509.725C287.902 510.328 280.944 511.23 279.222 512H72.1499ZM271.477 471.938C275.859 471.665 279.594 471.29 283.814 469.832C298.057 464.91 308.999 451.952 310.664 436.865C311.194 432.057 311.062 427.115 311.064 422.277V400.435V325.855L311.057 214.779L311.062 179.377C311.082 160.774 313.069 144.777 297.377 130.98C283.547 118.821 268.612 121.063 251.427 121.074L208.491 121.081L123.738 121.075C109.604 121.075 93.9476 120.736 79.9846 121.117C67.8929 121.739 58.4131 125.259 50.1516 134.475C44.8276 140.43 41.4439 147.866 40.4501 155.792C39.9054 160.087 40.0601 166.145 40.0596 170.586L40.0589 192.145L40.0661 265.705L40.0716 378.61L40.0644 414.457C40.0576 420.285 39.8181 428.405 40.1574 434.092C40.6974 444.912 45.6441 455.042 53.8469 462.122C59.3286 466.955 66.0589 470.15 73.2691 471.34C79.6631 472.337 91.4809 472.005 98.3726 471.997L139.6 471.99L225.659 471.992C240.717 471.992 256.477 472.215 271.477 471.938Z" fill="#F5F5F5"/>
<path d="M125.079 0H358.907C360.594 0.62238 363.779 1.01598 365.667 1.34978C368.572 1.86669 371.444 2.55713 374.267 3.41738C394.669 9.69725 411.754 23.8055 421.779 42.6535C426.882 52.3052 429.947 62.902 430.789 73.787C431.184 78.642 431.072 83.8377 431.072 88.7432L431.062 109.506L431.064 176.543L431.062 325.32L431.059 360.5C431.062 366.835 431.679 382.923 430.014 388.19C428.342 393.313 424.687 397.55 419.864 399.953C415.132 402.298 409.662 402.66 404.662 400.957C395.632 397.887 390.834 389.997 391.072 380.84C391.209 375.582 391.052 370.098 391.052 364.825L391.059 328.027L391.062 159.504L391.067 105.957C391.069 98.957 391.034 91.918 391.064 84.922C391.104 76.5255 390.602 69.8278 386.789 62.1925C381.859 52.3093 373.062 44.9057 362.479 41.7385C354.567 39.4007 337.832 40.0705 328.729 40.075L293.329 40.087L163.682 40.0817L142.911 40.0822C137.566 40.0832 127.46 40.5965 122.742 39.0028C117.595 37.289 113.356 33.5715 110.985 28.6915C106.605 19.5479 110.04 7.62575 119.089 2.5509C120.81 1.5857 122.886 1.09284 124.653 0.214902L125.079 0Z" fill="#F5F5F5"/>
</svg>
