<svg width="152" height="133" viewBox="0 0 152 133" fill="none" xmlns="http://www.w3.org/2000/svg">
<path d="M102 22.5C107.247 22.5 111.5 18.0228 111.5 12.5C111.5 6.97715 107.247 2.5 102 2.5C96.7533 2.5 92.5 6.97715 92.5 12.5C92.5 18.0228 96.7533 22.5 102 22.5Z" stroke="#DADADA" stroke-width="5"/>
<path d="M139.5 101.5C145.023 101.5 149.5 97.0228 149.5 91.5C149.5 85.9772 145.023 81.5 139.5 81.5C133.977 81.5 129.5 85.9772 129.5 91.5C129.5 97.0228 133.977 101.5 139.5 101.5Z" stroke="#DADADA" stroke-width="5"/>
<path d="M55.5 130.5C61.0228 130.5 65.5 126.023 65.5 120.5C65.5 114.977 61.0228 110.5 55.5 110.5C49.9772 110.5 45.5 114.977 45.5 120.5C45.5 126.023 49.9772 130.5 55.5 130.5Z" stroke="#DADADA" stroke-width="5"/>
<path d="M103 87.5C115.426 87.5 125.5 77.6503 125.5 65.5C125.5 53.3497 115.426 43.5 103 43.5C90.5736 43.5 80.5 53.3497 80.5 65.5C80.5 77.6503 90.5736 87.5 103 87.5Z" stroke="#DADADA" stroke-width="5"/>
<path d="M49 92.5C55.9036 92.5 61.5 86.9036 61.5 80C61.5 73.0964 55.9036 67.5 49 67.5C42.0964 67.5 36.5 73.0964 36.5 80C36.5 86.9036 42.0964 92.5 49 92.5Z" stroke="#DADADA" stroke-width="5"/>
<path d="M18 70.5C26.5604 70.5 33.5 63.5604 33.5 55C33.5 46.4396 26.5604 39.5 18 39.5C9.43959 39.5 2.5 46.4396 2.5 55C2.5 63.5604 9.43959 70.5 18 70.5Z" stroke="#DADADA" stroke-width="5"/>
<path d="M102 22.5L99.113 41.7238M129.5 87L117.77 80.2091M62.5 113L87.5 83.5M61.5 77L81.5 74.5M30.5 65.5L39.5 71" stroke="#DADADA" stroke-width="5"/>
</svg>
