<svg width="176" height="154" viewBox="0 0 176 154" fill="none" xmlns="http://www.w3.org/2000/svg">
<path d="M150.411 0C152.503 0.03325 154.212 1.558 155.478 3.10825C161.475 10.451 167.804 17.5905 173.755 24.953C174.968 26.4543 175.727 28.7155 174.324 30.1835C169.301 36.814 163.797 43.15 158.464 49.542L130.891 82.6155L93.6475 127.305C87.1287 135.134 80.6167 142.991 74.0662 150.794C72.9515 152.122 71.7045 153.354 69.8537 153.393C69.1725 153.407 67.1697 151.974 66.5872 151.472C63.027 148.407 59.5707 145.105 56.037 142.006C46.8207 133.924 37.8087 125.355 28.57 117.329C19.961 109.525 11.2687 101.751 2.64671 93.9608C1.61696 93.0305 -0.0732886 91.4002 0.00246137 90.0165C0.0204614 89.0012 0.653962 87.4927 1.35596 86.741C7.84196 79.7975 14.3322 72.7935 20.8295 65.8522C23.002 63.531 25.294 61.381 28.3315 63.8705C33.8982 68.4327 39.2672 73.307 44.701 78.0457L57.5035 89.193C59.8837 91.2627 62.7837 93.639 64.971 95.826C80.7002 77.4483 97.1632 59.279 113.104 41.0447L133.32 18.049C137.988 12.7023 142.738 7.2095 147.568 2.01325C148.523 0.985748 149.101 0.525 150.411 0Z" fill="#F5F5F5"/>
</svg>
