<svg width="213" height="283" viewBox="0 0 213 283" fill="none" xmlns="http://www.w3.org/2000/svg">
<path d="M93.9992 0.0449739C98.7142 -0.334526 101.897 1.71972 105.135 4.99597C112.594 12.5425 120.161 19.9647 127.665 27.4662C132.487 32.286 137.751 37.003 141.999 42.3105C144.391 45.3862 144.569 50.9347 142.116 53.998C138.379 58.6627 133.751 62.905 129.524 67.1597L104.741 92.1365C96.6727 100.226 84.2732 96.2827 84.4157 84.8765C84.4272 83.1897 84.8937 81.5372 85.7657 80.0935C87.5204 77.228 92.1307 72.9067 94.6807 70.3507C98.8089 66.182 102.975 62.0505 107.177 57.9562C103.214 58.0367 99.6644 58.2055 95.7129 58.675C73.6484 61.2277 53.5339 72.5365 39.8869 90.0612C25.7502 108.091 20.4084 129.936 23.1594 152.533C24.1404 159.436 25.9629 166.192 28.5859 172.652C29.8459 175.783 31.4624 178.692 33.0409 181.652C35.2357 185.928 39.8799 190.68 39.1182 195.814C37.5484 206.396 24.7382 209.757 18.4832 200.685C15.7349 196.7 13.6199 193.236 11.4524 188.964C1.72518 169.792 -1.93232 148.112 0.966685 126.81C4.71968 98.861 19.5687 73.5997 42.1637 56.7257C56.5234 45.9422 73.4137 39.0297 91.2137 36.6517C94.8242 36.1452 100.706 35.5262 104.287 36.031C100.87 32.4012 97.3564 28.8642 93.7497 25.4235C90.3217 22.095 85.6239 18.2547 84.5062 13.4945C83.8672 10.682 84.3702 7.73072 85.9049 5.28872C87.7882 2.26822 90.6507 0.838474 93.9992 0.0449739Z" fill="#F5F5F5"/>
<path d="M183.082 77.0085C183.517 76.9877 183.952 76.9742 184.387 76.9682C191.987 76.88 195.685 84.1242 198.932 89.8945C207.745 105.451 212.442 122.998 212.58 140.877C212.882 168.53 202.235 195.18 182.965 215.015C162.484 235.902 137.102 246.659 107.908 246.937C108.168 247.132 108.42 247.337 108.663 247.552C114.802 253.049 121.674 259.909 126.914 266.219C129.727 269.607 128.108 276.227 125.208 279.297C123.162 281.487 120.314 282.752 117.317 282.802C115.566 282.822 112.509 282.144 111.195 281.107C107.286 278.019 103.093 273.499 99.5525 269.957L76.7998 247.307C70.6325 241.194 64.302 234.869 72.296 226.497C82.9298 215.36 94.2328 204.772 104.907 193.675C110.505 187.856 117.125 182.354 124.681 189.488C126.868 191.533 128.129 194.38 128.175 197.373C128.299 203.519 122.127 208.192 118.051 212.257C113.779 216.484 109.544 220.747 105.346 225.049C107.846 224.662 111.517 224.582 114.157 224.352C119.729 223.867 124.26 223.142 129.662 221.659C150.652 215.764 168.482 201.852 179.305 182.925C192.16 160.438 193.742 133.229 183.582 109.403C182.122 106.06 180.469 102.804 178.63 99.6537C178.043 98.6477 177.135 97.1227 176.468 96.2017C170.616 88.1152 173.42 79.498 183.082 77.0085Z" fill="#F5F5F5"/>
</svg>
